<?xml version="1.0" encoding="UTF-8" standalone="no"?>
<!-- Created with Inkscape (http://www.inkscape.org/) -->

<svg
   width="59.772572mm"
   height="59.772587mm"
   viewBox="0 0 59.772572 59.772587"
   version="1.1"
   id="svg5"
   sodipodi:docname="company_logo.svg"
   inkscape:version="1.1.1 (3bf5ae0d25, 2021-09-20, custom)"
   xmlns:inkscape="http://www.inkscape.org/namespaces/inkscape"
   xmlns:sodipodi="http://sodipodi.sourceforge.net/DTD/sodipodi-0.dtd"
   xmlns="http://www.w3.org/2000/svg"
   xmlns:svg="http://www.w3.org/2000/svg">
  <sodipodi:namedview
     id="namedview7"
     pagecolor="#505050"
     bordercolor="#eeeeee"
     borderopacity="1"
     inkscape:pageshadow="0"
     inkscape:pageopacity="0"
     inkscape:pagecheckerboard="0"
     inkscape:document-units="mm"
     showgrid="false"
     inkscape:zoom="0.95265214"
     inkscape:cx="101.29616"
     inkscape:cy="40.413492"
     inkscape:window-width="1880"
     inkscape:window-height="1000"
     inkscape:window-x="20"
     inkscape:window-y="20"
     inkscape:window-maximized="1"
     inkscape:current-layer="layer1" />
  <defs
     id="defs2" />
  <g
     inkscape:label="Layer 1"
     inkscape:groupmode="layer"
     id="layer1"
     transform="translate(-23.160803,-192.03259)">
    <path
       id="path835-0"
       style="fill:none;stroke:#ffffff;stroke-width:4.23333;stroke-linecap:round;stroke-linejoin:round;stroke-opacity:0.998985"
       d="M 65.536654,207.49721 A 12.489514,12.489514 0 0 1 53.047148,219.98673 12.489514,12.489514 0 0 1 40.55763,207.49721 12.489514,12.489514 0 0 1 53.047148,195.00769 12.489514,12.489514 0 0 1 65.536654,207.49721 Z" />
    <path
       id="path1065-6"
       style="fill:none;stroke:#ffffff;stroke-width:4.23333;stroke-linecap:round;stroke-linejoin:round;stroke-opacity:0.998985"
       d="m 71.781405,218.31344 c -1.960106,-1.13166 -4.099703,-1.67149 -6.211476,-1.6752 v -6e-5 c -4.324095,-0.007 -8.532334,2.2329 -10.849549,6.24643 -3.448893,5.97364 -1.402418,13.61215 4.571234,17.06103 4.002843,2.31103 8.753356,2.15462 12.489791,0.002"
       sodipodi:nodetypes="cccssc" />
    <path
       id="path1069-3"
       style="fill:none;stroke:#ffffff;stroke-width:4.23333;stroke-linecap:round;stroke-linejoin:round;stroke-opacity:0.998985"
       d="m 46.802376,218.31345 c -1.960093,-1.13165 -4.099703,-1.67148 -6.211475,-1.6752 v -6e-5 c -4.324096,-0.007 -8.532322,2.2329 -10.849549,6.24643 -3.44887,5.97364 -1.402406,13.61215 4.571233,17.06103 4.002832,2.31103 8.753356,2.15461 12.489791,0.002"
       sodipodi:nodetypes="cccssc" />
    <path
       id="path2979"
       style="vector-effect:non-scaling-stroke;fill:none;stroke:#ffffff;stroke-width:0.0112007;stroke-linecap:round;stroke-linejoin:round;stroke-miterlimit:4;stroke-dasharray:none;stroke-opacity:0.998985;-inkscape-stroke:hairline"
       d="M 78.929366,206.97575 A 29.886275,29.886275 0 0 1 67.990243,247.80117 29.886275,29.886275 0 0 1 27.164818,236.86203 29.886275,29.886275 0 0 1 38.103949,196.03659 29.886275,29.886275 0 0 1 78.929366,206.97575 Z" />
    <path
       id="path5997"
       style="display:none;fill:none;stroke:#ffffff;stroke-width:4.23333;stroke-linecap:round;stroke-linejoin:round;stroke-opacity:0.998985"
       d="m 74.098599,227.99589 a 10.525737,10.525737 0 0 1 -10.52573,10.52574 10.525737,10.525737 0 0 1 -10.525733,-10.52574 10.525737,10.525737 0 0 1 10.525733,-10.52574 10.525737,10.525737 0 0 1 10.52573,10.52574 z" />
    <path
       id="path8496"
       style="fill:#fefefe;fill-opacity:1;stroke:#ffffff;stroke-width:4.23335;stroke-linecap:round;stroke-linejoin:round;stroke-opacity:0.998985"
       d="m 78.026159,229.12967 a 2.5115687,2.5115695 0 0 1 -2.511567,2.51156 2.5115687,2.5115695 0 0 1 -2.511568,-2.51156 2.5115687,2.5115695 0 0 1 2.511568,-2.51158 2.5115687,2.5115695 0 0 1 2.511567,2.51158 z" />
  </g>
</svg>
