<?xml version="1.0" encoding="UTF-8" standalone="no"?>
<!-- Created with Inkscape (http://www.inkscape.org/) -->

<svg
   width="31.029297"
   height="44"
   viewBox="0 0 8.2098344 11.641667"
   version="1.1"
   id="svg9028"
   inkscape:version="1.1.1 (3bf5ae0d25, 2021-09-20, custom)"
   sodipodi:docname="credit_icon.svg"
   xmlns:inkscape="http://www.inkscape.org/namespaces/inkscape"
   xmlns:sodipodi="http://sodipodi.sourceforge.net/DTD/sodipodi-0.dtd"
   xmlns="http://www.w3.org/2000/svg"
   xmlns:svg="http://www.w3.org/2000/svg">
  <sodipodi:namedview
     id="namedview9030"
     pagecolor="#505050"
     bordercolor="#eeeeee"
     borderopacity="1"
     inkscape:pageshadow="0"
     inkscape:pageopacity="0"
     inkscape:pagecheckerboard="0"
     inkscape:document-units="mm"
     showgrid="false"
     inkscape:zoom="9.4028121"
     inkscape:cx="28.448936"
     inkscape:cy="8.5612686"
     inkscape:window-width="1880"
     inkscape:window-height="1000"
     inkscape:window-x="20"
     inkscape:window-y="20"
     inkscape:window-maximized="1"
     inkscape:current-layer="layer1"
     units="px" />
  <defs
     id="defs9025">
    <inkscape:path-effect
       effect="fillet_chamfer"
       id="path-effect25109"
       is_visible="true"
       lpeversion="1"
       satellites_param="F,0,1,1,0,2.143016,0,1 @ F,0,0,1,0,0,0,1 @ F,0,1,1,0,2.143016,0,1"
       unit="px"
       method="auto"
       mode="F"
       radius="0"
       chamfer_steps="1"
       flexible="false"
       use_knot_distance="true"
       apply_no_radius="true"
       apply_with_radius="true"
       only_selected="false"
       hide_knots="false" />
    <inkscape:path-effect
       effect="fillet_chamfer"
       id="path-effect21808"
       is_visible="true"
       lpeversion="1"
       satellites_param="F,0,1,1,0,2.143016,0,1 @ F,0,0,1,0,0,0,1 @ F,0,1,1,0,2.143016,0,1"
       unit="px"
       method="auto"
       mode="F"
       radius="0"
       chamfer_steps="1"
       flexible="false"
       use_knot_distance="true"
       apply_no_radius="true"
       apply_with_radius="true"
       only_selected="false"
       hide_knots="false" />
    <inkscape:path-effect
       effect="fillet_chamfer"
       id="path-effect21798"
       is_visible="true"
       lpeversion="1"
       satellites_param="F,0,1,1,0,2.143016,0,1 @ F,0,0,1,0,0,0,1 @ F,0,1,1,0,2.143016,0,1"
       unit="px"
       method="auto"
       mode="F"
       radius="0"
       chamfer_steps="1"
       flexible="false"
       use_knot_distance="true"
       apply_no_radius="true"
       apply_with_radius="true"
       only_selected="false"
       hide_knots="false" />
    <inkscape:path-effect
       effect="fillet_chamfer"
       id="path-effect20841"
       is_visible="true"
       lpeversion="1"
       satellites_param="F,0,1,1,0,2.388387,0,1 @ F,0,0,1,0,0,0,1 @ F,0,1,1,0,2.388387,0,1"
       unit="px"
       method="auto"
       mode="F"
       radius="0"
       chamfer_steps="1"
       flexible="false"
       use_knot_distance="true"
       apply_no_radius="true"
       apply_with_radius="true"
       only_selected="false"
       hide_knots="false" />
    <inkscape:path-effect
       effect="fillet_chamfer"
       id="path-effect20778"
       is_visible="true"
       lpeversion="1"
       satellites_param="F,0,1,1,0,2.388387,0,1 @ F,0,0,1,0,0,0,1 @ F,0,1,1,0,2.388387,0,1"
       unit="px"
       method="auto"
       mode="F"
       radius="0"
       chamfer_steps="1"
       flexible="false"
       use_knot_distance="true"
       apply_no_radius="true"
       apply_with_radius="true"
       only_selected="false"
       hide_knots="false" />
    <inkscape:path-effect
       effect="fillet_chamfer"
       id="path-effect20525"
       is_visible="true"
       lpeversion="1"
       satellites_param="F,0,1,1,0,2.388387,0,1 @ F,0,0,1,0,0,0,1 @ F,0,1,1,0,2.388387,0,1"
       unit="px"
       method="auto"
       mode="F"
       radius="0"
       chamfer_steps="1"
       flexible="false"
       use_knot_distance="true"
       apply_no_radius="true"
       apply_with_radius="true"
       only_selected="false"
       hide_knots="false" />
    <inkscape:path-effect
       effect="fillet_chamfer"
       id="path-effect19744"
       is_visible="true"
       lpeversion="1"
       satellites_param="F,0,1,1,0,3.070083,0,1 @ F,0,0,1,0,0,0,1 @ F,0,1,1,0,3.070083,0,1"
       unit="px"
       method="auto"
       mode="F"
       radius="0"
       chamfer_steps="1"
       flexible="false"
       use_knot_distance="true"
       apply_no_radius="true"
       apply_with_radius="true"
       only_selected="false"
       hide_knots="false" />
    <inkscape:path-effect
       effect="fillet_chamfer"
       id="path-effect16786"
       is_visible="true"
       lpeversion="1"
       satellites_param="F,0,1,1,0,8.6828603,0,1 @ F,0,0,1,0,0,0,1 @ F,0,0,1,0,8.6828603,0,1"
       unit="px"
       method="auto"
       mode="F"
       radius="0"
       chamfer_steps="1"
       flexible="false"
       use_knot_distance="true"
       apply_no_radius="true"
       apply_with_radius="true"
       only_selected="false"
       hide_knots="false" />
    <inkscape:path-effect
       effect="fillet_chamfer"
       id="path-effect14977"
       is_visible="true"
       lpeversion="1"
       satellites_param="F,0,1,1,0,12.922221,0,1 @ F,0,0,1,0,0,0,1 @ F,0,0,1,0,12.922221,0,1"
       unit="px"
       method="auto"
       mode="F"
       radius="0"
       chamfer_steps="1"
       flexible="false"
       use_knot_distance="true"
       apply_no_radius="true"
       apply_with_radius="true"
       only_selected="false"
       hide_knots="false" />
    <inkscape:path-effect
       effect="fillet_chamfer"
       id="path-effect12799"
       is_visible="true"
       lpeversion="1"
       satellites_param="F,0,1,1,0,2.143016,0,1 @ F,0,0,1,0,0,0,1 @ F,0,1,1,0,2.143016,0,1"
       unit="px"
       method="auto"
       mode="F"
       radius="0"
       chamfer_steps="1"
       flexible="false"
       use_knot_distance="true"
       apply_no_radius="true"
       apply_with_radius="true"
       only_selected="false"
       hide_knots="false" />
  </defs>
  <g
     inkscape:label="Layer 1"
     inkscape:groupmode="layer"
     id="layer1"
     transform="translate(-102.50353,-148.5752)">
    <path
       id="path4511"
       style="color:#000000;fill:#000000;fill-opacity:0.5;stroke-linecap:round;stroke-linejoin:round;-inkscape-stroke:none"
       d="M 22,0 C 9.9030472,-1.3e-6 -9.9999998e-7,9.9030492 0,22 -9.9999998e-7,34.096952 9.9030472,44.000002 22,44 a 4.5004499,4.5004499 0 0 0 0.002,0 c 1.922659,-5.6e-4 3.836362,-0.253774 5.693359,-0.751953 A 4.4999999,4.4999999 0 0 0 30.875,37.736328 4.4999999,4.4999999 0 0 0 27.025391,34.46875 4.4999999,4.4999999 0 0 0 28.714844,29.673828 4.4999999,4.4999999 0 0 0 23.203125,26.494141 C 22.810989,26.599328 22.405994,26.652084 22,26.652344 19.377294,26.652373 17.347626,24.622702 17.347656,22 c -2.9e-5,-2.620553 2.026899,-4.647097 4.646485,-4.650391 0.403753,0.0018 0.807543,0.05458 1.197265,0.160157 A 4.4999999,4.4999999 0 0 0 28.710938,14.341797 4.4999999,4.4999999 0 0 0 27.015625,9.5332031 4.4999999,4.4999999 0 0 0 30.875,6.2636719 4.4999999,4.4999999 0 0 0 27.695312,0.75195312 C 25.83827,0.25377503 23.924614,5.6059999e-4 22.001953,0 A 4.5004499,4.5004499 0 0 0 22,0 Z"
       transform="matrix(0.26458333,0,0,0.26458333,102.50353,148.5752)" />
    <path
       id="path4011"
       style="fill:none;fill-opacity:0.996078;stroke:#000000;stroke-width:9;stroke-linecap:round;stroke-linejoin:round;stroke-miterlimit:4;stroke-dasharray:none;stroke-opacity:0.5"
       d="m 160.49219,12.320312 c -1.47716,-0.39628 -2.9999,-0.59721 -4.5293,-0.597656 -9.66498,-1e-6 -17.5,7.835017 -17.5,17.5 0,9.664983 7.83502,17.500001 17.5,17.5 1.5294,-4.46e-4 3.05214,-0.201376 4.5293,-0.597656"
       transform="matrix(0.26458333,0,0,0.26458333,47.822115,144.31913)"
       sodipodi:nodetypes="ccscc" />
    <path
       id="path4013"
       style="fill:none;fill-opacity:0.996078;stroke:#000000;stroke-width:9;stroke-linecap:round;stroke-linejoin:round;stroke-miterlimit:4;stroke-dasharray:none;stroke-opacity:0.5"
       d="m 157.90234,21.984375 c -0.63228,-0.171573 -1.28431,-0.259562 -1.93945,-0.261719 -4.14214,-4e-6 -7.50001,3.357863 -7.5,7.5 -10e-6,4.142137 3.35786,7.500004 7.5,7.5 0.65554,-7.5e-5 1.30824,-0.0861 1.94141,-0.255859"
       sodipodi:nodetypes="ccscc"
       transform="matrix(0.26458333,0,0,0.26458333,47.822115,144.31913)" />
    <path
       id="path1058"
       style="fill:none;fill-opacity:0.996078;stroke:#ffffff;stroke-width:4.99997;stroke-linecap:round;stroke-linejoin:round;stroke-miterlimit:4;stroke-dasharray:none;stroke-opacity:0.996778"
       d="m 160.49219,12.320312 c -1.47716,-0.39628 -2.9999,-0.59721 -4.5293,-0.597656 -9.66498,-1e-6 -17.5,7.835017 -17.5,17.5 0,9.664983 7.83502,17.500001 17.5,17.5 1.5294,-4.46e-4 3.05214,-0.201376 4.5293,-0.597656"
       transform="matrix(0.26458333,0,0,0.26458333,47.822115,144.31913)"
       sodipodi:nodetypes="ccscc" />
    <path
       id="path1060"
       style="fill:none;fill-opacity:0.996078;stroke:#ffffff;stroke-width:5.00001;stroke-linecap:round;stroke-linejoin:round;stroke-miterlimit:4;stroke-dasharray:none;stroke-opacity:0.996778"
       d="m 157.90234,21.984375 c -0.63228,-0.171573 -1.28431,-0.259562 -1.93945,-0.261719 -4.14214,-4e-6 -7.50001,3.357863 -7.5,7.5 -10e-6,4.142137 3.35786,7.500004 7.5,7.5 0.65554,-7.5e-5 1.30824,-0.0861 1.94141,-0.255859"
       sodipodi:nodetypes="ccscc"
       transform="matrix(0.26458333,0,0,0.26458333,47.822115,144.31913)" />
    <path
       id="path3756"
       style="fill:none;fill-opacity:0.996078;stroke:#ffffff;stroke-width:3;stroke-linecap:round;stroke-linejoin:round;stroke-miterlimit:4;stroke-dasharray:none;stroke-opacity:0.996778"
       d="m 99.236328,13.960938 c -1.477164,-0.39628 -2.999902,-0.597211 -4.529297,-0.597657 -9.664984,-1e-6 -17.500001,7.835017 -17.5,17.5 -10e-7,9.664983 7.835016,17.500001 17.5,17.5 1.529395,-4.46e-4 3.052133,-0.201376 4.529297,-0.597656"
       transform="matrix(0.26458333,0,0,0.26458333,83.266463,146.23012)"
       sodipodi:nodetypes="ccscc" />
    <path
       id="path3758"
       style="fill:none;fill-opacity:0.996078;stroke:#ffffff;stroke-width:3;stroke-linecap:round;stroke-linejoin:round;stroke-miterlimit:4;stroke-dasharray:none;stroke-opacity:0.996778"
       d="m 97.074219,22.029297 c -0.771768,-0.209069 -1.567606,-0.316099 -2.367188,-0.318359 -5.054724,-5.5e-5 -9.1524,4.097621 -9.152343,9.152343 -5.8e-5,5.054722 4.097619,9.152399 9.152343,9.152344 0.799977,-1.78e-4 1.596479,-0.10524 2.369141,-0.3125"
       transform="matrix(0.26458333,0,0,0.26458333,83.266463,146.23012)"
       sodipodi:nodetypes="ccccc" />
    <path
       id="path4119"
       style="fill:none;fill-opacity:0.996078;stroke:#ffffff;stroke-width:0.79375;stroke-linecap:round;stroke-linejoin:round;stroke-miterlimit:4;stroke-dasharray:none;stroke-opacity:0.996778"
       d="m 131.99742,149.15035 a 4.6302082,4.6302078 0 0 1 -4.63021,4.63021 4.6302082,4.6302078 0 0 1 -4.6302,-4.63021 4.6302082,4.6302078 0 0 1 4.6302,-4.63021 4.6302082,4.6302078 0 0 1 4.63021,4.63021 z" />
    <path
       id="path4121"
       style="fill:none;fill-opacity:0.996078;stroke:#ffffff;stroke-width:0.79375;stroke-linecap:round;stroke-linejoin:round;stroke-miterlimit:4;stroke-dasharray:none;stroke-opacity:0.996778"
       d="m 129.78874,149.15033 a 2.421531,2.4215301 0 0 1 -2.42154,2.42154 2.421531,2.4215301 0 0 1 -2.42152,-2.42154 2.421531,2.4215301 0 0 1 2.42152,-2.42153 2.421531,2.4215301 0 0 1 2.42154,2.42153 z" />
    <path
       id="path4123"
       style="fill:none;stroke:#000000;stroke-width:0.264583px;stroke-linecap:butt;stroke-linejoin:miter;stroke-opacity:1"
       d="m 129.64976,140.63148 -2.28255,8.51886 2.28255,8.51886 h -7.37991 l -2.16938,-8.51886 2.16938,-8.51886 z" />
  </g>
</svg>
